HIERARCHY
ROOT Hips
{
    OFFSET 0.0 0.0 0.0
    CHANNELS 6 Xposition Yposition Zposition Zrotation Xrotation Yrotation
    JOINT LeftUpLeg
    {
        OFFSET 13.442505110456906 0.0 0.0
        CHANNELS 3 Zrotation Xrotation Yrotation
        JOINT LeftLeg
        {
            OFFSET 0.0 0.0 -48.19508473457206
            CHANNELS 3 Zrotation Xrotation Yrotation
            JOINT LeftFoot
            {
                OFFSET 0.0 0.0 -35.6670337519317
                CHANNELS 3 Zrotation Xrotation Yrotation
                JOINT LeftToeBase
                {
                    OFFSET 0.0 -12.953096084915849 0.0
                    CHANNELS 3 Zrotation Xrotation Yrotation
                    End Site
                    {
                        OFFSET 0 0 0
                    }
                }
            }
        }
    }
    JOINT RightUpLeg
    {
        OFFSET -13.442505110456906 0.0 0.0
        CHANNELS 3 Zrotation Xrotation Yrotation
        JOINT RightLeg
        {
            OFFSET 0.0 0.0 -48.19508473457206
            CHANNELS 3 Zrotation Xrotation Yrotation
            JOINT RightFoot
            {
                OFFSET 0.0 0.0 -35.6670337519317
                CHANNELS 3 Zrotation Xrotation Yrotation
                JOINT RightToeBase
                {
                    OFFSET 0.0 -12.953096084915849 0.0
                    CHANNELS 3 Zrotation Xrotation Yrotation
                    End Site
                    {
                        OFFSET 0 0 0
                    }
                }
            }
        }
    }
    JOINT Spine
    {
        OFFSET 0.0 0.0 11.817159791054463
        CHANNELS 3 Zrotation Xrotation Yrotation
        JOINT Spine1
        {
            OFFSET 0.0 0.0 11.738384847680711
            CHANNELS 3 Zrotation Xrotation Yrotation
            JOINT Spine2
            {
                OFFSET 0.0 0.0 11.738384847680711
                CHANNELS 3 Zrotation Xrotation Yrotation
                JOINT Spine3
                {
                    OFFSET 0.0 0.0 11.73838484768071
                    CHANNELS 3 Zrotation Xrotation Yrotation
                    JOINT Spine4
                    {
                        OFFSET 0.0 0.0 11.738384847680715
                        CHANNELS 3 Zrotation Xrotation Yrotation
                        JOINT RightShoulder
                        {
                            OFFSET -22.05263985992539 0.0 0.0
                            CHANNELS 3 Zrotation Xrotation Yrotation
                            JOINT RightArm
                            {
                                OFFSET -31.928376856658417 0.0 0.0
                                CHANNELS 3 Zrotation Xrotation Yrotation
                                JOINT RightForeArm
                                {
                                    OFFSET -31.02327086587404 0.0 0.0
                                    CHANNELS 3 Zrotation Xrotation Yrotation
                                    JOINT RightHand
                                    {
                                        OFFSET -11.003265995816982 0.0 0.0
                                        CHANNELS 3 Zrotation Xrotation Yrotation
                                        End Site
                                        {
                                            OFFSET 0 0 0
                                        }
                                    }
                                }
                            }
                        }
                        JOINT LeftShoulder
                        {
                            OFFSET 22.05263985992539 0.0 0.0
                            CHANNELS 3 Zrotation Xrotation Yrotation
                            JOINT LeftArm
                            {
                                OFFSET 31.928376856658417 0.0 0.0
                                CHANNELS 3 Zrotation Xrotation Yrotation
                                JOINT LeftForeArm
                                {
                                    OFFSET 31.02327086587404 0.0 0.0
                                    CHANNELS 3 Zrotation Xrotation Yrotation
                                    JOINT LeftHand
                                    {
                                        OFFSET 11.003265995816982 0.0 0.0
                                        CHANNELS 3 Zrotation Xrotation Yrotation
                                        End Site
                                        {
                                            OFFSET 0 0 0
                                        }
                                    }
                                }
                            }
                        }
                        JOINT Neck
                        {
                            OFFSET 0.0 0.0 11.738384902868257
                            CHANNELS 3 Zrotation Xrotation Yrotation
                            JOINT Head
                            {
                                OFFSET 0.0 0.0 25.233230366943136
                                CHANNELS 3 Zrotation Xrotation Yrotation
                                End Site
                                {
                                    OFFSET 0 0 0
                                }
                            }
                        }
                    }
                }
            }
        }
    }
}
MOTION
Frames: 4
Frame Time: 0.03333333333333333
46.952682209014895 -24.305338346958166 451.9681560516358 150.64349988580642 -77.87757000837081 149.70200778825586 23.795041353872698 -17.72621384373501 -36.04490837586932 -38.581377169386066 2.550359601651594 66.77174508539453 -116.00299670763319 -2.067360542951286e-14 26.97507701880514 0.0 0.0 0.0 44.88715548672206 35.91689622113643 9.10400331205503 -51.5945274141053 -14.346938827366728 -57.62302431452747 -177.4616990129993 1.739365841425361e-14 -23.183971111720002 0.0 0.0 3.975693351829396e-16 -0.01885374848379539 2.0457344910598274 -0.6120333626190039 0.0 0.0 0.0 0.0 0.0 0.0 0.0 0.0 0.0 0.0 0.0 0.0 -160.7169852924299 -4.87931714995042 168.93098011750573 32.1825219443043 -5.8162160878918785e-15 1.2640228654821607e-15 3.7396419453649856e-17 24.432213692353255 2.9698881716064174e-16 -9.939233379573489e-17 6.361109362927033e-15 5.517382872562698e-33 -135.61174715877254 5.306531664244316 153.60446855273548 -102.34917629927152 3.958662284064049e-15 -5.227015139474118e-15 -180.0 -36.206813353821964 -180.0 -5.517382872562698e-33 3.1805546814635168e-15 1.987846675914698e-16 0.7736194648176141 -6.391179941880444e-15 -7.520086186613721e-16 -7.951386703658792e-16 0.0 0.0
45.87698228359223 -24.355322885513306 451.59611148834233 149.15555866776538 -78.09567577637121 148.28665145986974 14.190560904016657 -9.556352444330267 -37.1058472638877 -26.970726961588284 2.3229916860463162 63.93635249096699 -149.03135692550345 -7.156248033292914e-15 12.180556834347032 0.0 0.0 0.0 41.361077711197446 34.354389000708935 11.200068924937858 -44.71236232284624 -12.939019477468106 -55.897153350752816 157.60671277926696 -2.1866313435061677e-14 -15.042496056124577 0.0 0.0 0.0 -0.031120168822377593 2.0580021398368418 -0.6070864768847499 -3.975693351829396e-16 -6.3611093629270335e-15 -2.2069531490250793e-32 -3.975693351829396e-16 -6.3611093629270335e-15 -2.2069531490250793e-32 -3.975693351829396e-16 -6.3611093629270335e-15 -2.2069531490250793e-32 -3.975693351829396e-16 -6.3611093629270335e-15 -2.2069531490250793e-32 -159.1220513057254 -1.0432489937797484 168.722132133894 34.03439624946501 9.761066115575516e-15 -9.865531861542712e-16 7.043140800358803e-17 24.977926920400623 -1.2372142661354594e-15 -1.9878466759146985e-16 6.361109362927035e-15 1.9878466759146985e-16 -135.57610585050887 8.175825365254362 151.35952887586987 -101.85357976672483 8.874410366199518e-15 -9.2535761725512e-15 180.0 -51.798746876373514 180.0 1.3169484227934873e-15 3.975693351829396e-16 1.4287647983136892e-15 1.1681163249870647 1.18929773805763e-14 1.4691218746211262e-15 0.0 -4.969616689786745e-17 0.0
45.34927818775177 -24.668036699295044 451.4398029327393 148.1068245504654 -78.29984368475506 147.20651410339389 4.846592737773066 -1.0327528013140377 -35.897955670562446 -15.253167063714042 1.864797304582915 60.263348155221614 -113.3902210847656 4.770832022195275e-15 8.320989305916573 -3.1805546814635168e-15 0.0 0.0 40.45606328167044 33.932451552217294 11.911580171040267 -39.40319368647094 -11.613545593594464 -53.52634950552438 75.04261680215407 1.1927080055488187e-14 -13.463098626307533 -6.3611093629270335e-15 0.0 0.0 -0.04223013018174925 2.0568849442393797 -0.5478822100493741 -3.975693351829397e-16 -2.758691436281349e-33 7.951386703658794e-16 -3.975693351829397e-16 -2.758691436281349e-33 7.951386703658794e-16 -3.975693351829397e-16 -2.758691436281349e-33 7.951386703658794e-16 -3.975693351829397e-16 -2.758691436281349e-33 7.951386703658794e-16 -157.99320884826295 1.5542338858201175 168.7544353633911 35.55410364599108 -1.5625495239738583e-14 7.828050071696055e-15 -9.352326300239428e-17 24.68362884892004 4.274374592357056e-16 -7.951386703658792e-16 0.0 0.0 -135.40622753073322 10.292401427622911 150.21856935207987 -101.41217679186421 -6.937151258517764e-15 1.5670267468498632e-15 180.0 -51.14287503359899 180.0 -2.2363275104040355e-16 3.975693351829396e-16 6.212020862233431e-16 1.493594303207039 -2.8015893715104482e-14 1.16038799280173e-15 7.951386703658792e-16 0.0 0.0
45.35240614414215 -25.183696210384372 451.453296661377 146.99193926627083 -78.54388296639559 146.02437912843158 -0.014494131527247215 3.401675116874351 -32.5590190109144 -8.064079598207764 1.4418260741007545 54.828680876664805 -130.08827454680377 1.1131941385122309e-14 13.078698027692294 3.1805546814635168e-15 0.0 0.0 41.42997412929208 34.36517104698575 11.805178596934644 -35.226224817456576 -10.330209428040458 -51.555226317821656 34.85984263507332 6.3611093629270335e-15 -24.447538429371946 0.0 0.0 0.0 -0.053139903463127705 2.1151315727330533 -0.43242258655406124 0.0 0.0 0.0 0.0 0.0 0.0 0.0 0.0 0.0 0.0 0.0 0.0 -157.17107496957152 5.117960084998039 169.3404129119546 38.43826255042619 6.1942882276721474e-15 -2.1593987691379645e-15 1.1436336724094925e-15 31.10407127196165 -1.1436336724094925e-15 -6.896728590703373e-34 9.939233379573492e-17 7.951386703658794e-16 -135.67243680363487 11.979410820362846 149.68405061198007 -101.43857712672983 2.0136738112415617e-15 2.4619191423967154e-15 180.0 -47.47356199253348 -180.0 9.93923337957349e-17 -8.836433506838697e-34 -1.0187714214062827e-15 1.7804968201159956 -1.0459780393540882e-14 1.6253469932635119e-16 0.0 0.0 0.0
